<svg xmlns="http://www.w3.org/2000/svg" viewBox="0 0 64 64">
  <defs>
    <linearGradient id="g" x1="0" x2="1" y1="0" y2="1">
      <stop offset="0" stop-color="#e5e7eb"/>
      <stop offset="1" stop-color="#9ca3af"/>
    </linearGradient>
  </defs>
  <rect width="64" height="64" rx="12" fill="url(#g)"/>
  <g fill="#111827">
    <path d="M16 42V22h6.5q4.5 0 7.25 2.6t2.75 6.9q0 4.35-2.8 7.43T22.5 42H16zm6.6-5q3.15 0 5.02-1.83Q29.5 33.3 29.5 31.5t-1.88-3.68Q25.75 26 22.6 26H20v11h2.6z"/>
    <path d="M36 42V22h5.2q2.9 0 4.95 1.02 2.05 1.03 3.2 2.98 1.15 1.95 1.15 4.55 0 3.9-2.45 6.67T40.8 42H36zm5.3-5q3.1 0 5-1.98 1.9-1.97 1.9-4.87 0-2.84-1.9-4.5T41.3 24H40v13h1.3z"/>
  </g>
</svg>
